<svg width="339" height="347" viewBox="0 0 339 347" fill="none" xmlns="http://www.w3.org/2000/svg">
<g opacity="0.2">
<path d="M206.738 233.029L166.916 256.094C162.934 258.48 161.739 263.252 163.73 267.228C165.721 271.205 171.296 272.398 174.88 270.409L210.72 249.731L246.56 270.409C247.755 271.205 249.348 271.602 250.542 271.602C253.33 271.602 256.117 270.012 257.71 267.626C260.1 263.649 258.507 258.48 254.525 256.491L214.702 233.427C212.711 231.439 209.127 231.836 206.738 233.029Z" fill="#302F38"/>
<path d="M338.948 221.895V175.766C338.948 174.971 338.549 173.778 338.549 172.982C338.948 172.187 338.948 170.994 338.948 170.199V124.07C338.948 121.287 337.355 118.503 334.965 116.912L299.126 96.2339V54.8772C299.126 52.0936 297.533 49.3099 295.143 47.7193L256.914 25.848C256.516 25.4503 255.719 24.655 254.923 24.2573L215.101 1.19298C212.711 -0.397661 209.526 -0.397661 206.738 1.19298L170.102 22.269L133.465 1.19298C131.076 -0.397661 127.89 -0.397661 125.103 1.19298L85.2806 24.2573C84.4842 24.655 83.6877 25.4503 82.8913 26.2456L44.662 48.5146C42.2727 50.1053 40.6798 52.8889 40.6798 55.6725V96.6316L4.83991 117.31C2.45058 118.901 0.857694 121.684 0.857694 124.468V170.597C0.857694 171.392 1.25592 172.585 1.25592 173.38C0.857695 174.175 0.459473 174.971 0.459473 176.164V222.292C0.459473 225.076 2.05236 227.86 4.44168 229.45L40.2816 250.129V291.883C40.2816 294.667 41.8745 297.45 44.2638 299.041L82.4931 320.912C82.8913 321.31 83.6877 322.105 84.4842 322.503L124.306 345.567C125.501 346.363 127.094 346.76 128.289 346.76C129.881 346.76 131.076 346.363 132.271 345.567L168.907 324.491L205.543 345.567C206.738 346.363 208.331 346.76 209.526 346.76C211.119 346.76 212.313 346.363 213.508 345.567L253.33 322.503C254.127 322.105 254.923 321.31 255.719 320.515L294.347 298.246C296.736 296.655 298.329 293.871 298.329 291.088V249.731L334.169 229.053C337.355 227.86 338.948 225.076 338.948 221.895ZM254.923 214.339C250.941 212.351 245.764 213.544 243.773 217.52C242.578 219.509 242.578 221.497 242.976 223.883C243.375 225.871 244.967 227.86 246.959 229.053L282.798 249.731V286.316L250.941 304.608L215.101 283.93C211.119 281.544 205.942 283.135 203.951 287.111C202.756 289.099 202.358 291.088 203.154 293.474C203.552 295.462 205.145 297.45 207.136 298.643L235.41 314.947L210.322 329.263L174.482 308.585C172.889 307.789 171.296 307.392 169.704 307.79C168.111 307.79 166.518 307.789 164.925 308.585L129.085 329.263L97.2273 310.971V268.819C97.2273 264.444 93.6433 260.468 88.8646 260.468C84.4842 260.468 80.502 264.047 80.502 268.819V300.234L57.0069 286.713V250.129L88.8646 231.836L120.722 250.129V291.485C120.722 295.86 124.306 299.836 129.085 299.836C133.465 299.836 137.448 296.257 137.448 291.485V246.55L166.12 229.848C168.111 228.655 169.305 227.064 170.102 224.678C170.5 222.69 170.5 220.304 169.305 218.316C167.314 214.339 161.739 213.146 158.155 215.135L126.297 233.427L97.6255 217.123V178.947L127.094 161.848C129.085 160.655 130.28 159.064 131.076 156.678C131.474 154.69 131.474 152.304 130.28 150.316C128.289 146.737 122.713 145.146 119.129 147.135L88.4664 164.632L53.4229 144.351C49.4407 141.965 44.2638 143.556 42.2727 147.532C39.8834 151.509 41.4763 156.678 45.4585 158.667L81.2984 179.345V217.123L49.8389 235.415L17.9812 217.123V184.117L45.4585 200.023C46.6532 200.819 48.246 201.216 49.4407 201.216C52.2283 201.216 55.0158 199.626 56.6087 197.24C58.998 193.263 57.4051 188.094 53.4229 186.105L17.583 165.427V128.842L49.0425 110.947L85.2806 131.626C86.4753 132.421 88.0682 132.819 89.2628 132.819C92.0504 132.819 94.8379 131.228 96.4308 128.842C98.8202 124.866 97.2273 119.696 93.2451 117.708L57.4051 97.0292V60.4444L89.2628 42.1521L125.103 62.8304C129.085 65.2164 134.262 63.6257 136.253 59.6491C137.448 57.6608 137.846 55.6725 137.049 53.2866C136.651 51.2982 135.058 49.3099 133.067 48.117L104.793 31.8129L129.881 17.4971L165.721 38.1754C166.916 38.9708 168.509 39.3684 169.704 39.3684C170.102 39.3684 170.102 39.3684 170.5 39.3684C172.093 39.3684 173.686 39.3684 175.279 38.1754L211.119 17.4971L242.976 35.7895V77.1462C242.976 81.5205 246.56 85.4971 251.339 85.4971C255.719 85.4971 259.702 81.9181 259.702 77.1462V45.731L283.197 59.2515V95.8363L251.339 114.129L219.481 95.8363V54.8772C219.481 50.5029 215.897 46.5263 211.119 46.5263C206.738 46.5263 202.756 50.1053 202.756 54.8772V99.8129L174.084 116.515C172.093 117.708 170.898 119.298 170.102 121.684C169.704 123.673 169.704 126.058 170.898 128.047C172.491 130.433 175.279 132.023 178.066 132.023C179.659 132.023 180.854 131.626 182.048 130.83L213.906 112.538L242.578 128.842V167.813L213.11 184.912C209.127 187.298 207.933 192.07 209.924 196.047C211.517 198.433 214.304 200.023 217.092 200.023C218.685 200.023 219.879 199.626 221.074 198.83L251.737 181.333L286.781 201.614C287.975 202.409 289.568 202.807 290.763 202.807C293.55 202.807 296.338 201.216 297.931 198.83C300.32 194.854 298.727 189.684 294.745 187.696L258.905 167.018V129.24L290.365 110.947L322.222 129.24V161.848L294.745 145.942C290.763 143.556 285.586 145.146 283.595 149.123C281.206 153.099 282.798 158.269 286.781 160.257L322.621 180.936V217.52L291.161 235.415L254.923 214.339Z" fill="#302F38"/>
<path d="M192.402 165.824C192.8 163.836 192.8 161.45 191.606 159.462C189.614 155.485 184.039 154.292 180.455 156.28L147.403 175.368C145.412 176.561 144.217 178.152 143.421 180.538C143.023 182.526 143.023 184.912 144.217 186.9C145.81 189.286 148.598 190.877 151.385 190.877C152.978 190.877 154.173 190.479 155.367 189.684L188.42 170.596C190.411 169.403 191.606 167.813 192.402 165.824Z" fill="#302F38"/>
<path d="M176.473 85.099C176.872 83.1107 176.872 80.7247 175.677 78.7364C173.686 75.1575 168.111 73.5668 164.527 75.5551L128.687 96.2335L92.847 75.5551C88.8648 73.1692 83.6879 74.7598 81.6968 78.7364C79.3075 82.713 80.9004 87.8826 84.8826 89.8709L124.705 112.935C125.899 113.731 127.492 114.128 128.687 114.128C130.28 114.128 131.474 113.731 132.669 112.935L172.491 89.8709C174.881 89.0756 176.075 87.0873 176.473 85.099Z" fill="#302F38"/>
</g>
</svg>
